# xmcd
#
# Track frame offsets:
#	150
#	16785
#	33067
#	51367
#	71122
#	87009
#	102319
#	123628
#	140139
#	157315
#	172957
#	191494
#	207844
#	227137
#	245446
#
# Disc length: 3461 seconds
#
# Revision: 1
# Processed by: cddbd v1.5.1PL2 Copyright (c) Steve Scherf et al.
# Submitted via: audiograbber 1.83.01
#
DISCID=d00d830f
DTITLE=Various Artist - Country Hits of the Month CB60215
DYEAR=1900
DGENRE=
TTITLE0=Colin Raye - You still take me there
TTITLE1=Brooks and Dunn - Ain't nothing bout you
TTITLE2=Lydia Miller - Out of lonelyness
TTITLE3=Ricky Lynn Gregg - Careful what you wish for
TTITLE4=Kentucky Headhunters - Jessico
TTITLE5=Trick Pony - If you think you got trouble
TTITLE6=George Starit - If you can do anything else
TTITLE7=Alan Jackson - When somebody loves you
TTITLE8=Wilkinsons - i wanna be that girl
TTITLE9=John Anderson - The big Revival
TTITLE10=Tracy lawrence - Unforgiven
TTITLE11=KT Oslin - Live close by  Visit often
TTITLE12=Chris Cagle - Laredo
TTITLE13=Marshall Dyllon - You
TTITLE14=Rick Farell - The girls got it goin on
EXTD=
EXTT0=
EXTT1=
EXTT2=
EXTT3=
EXTT4=
EXTT5=
EXTT6=
EXTT7=
EXTT8=
EXTT9=
EXTT10=
EXTT11=
EXTT12=
EXTT13=
EXTT14=
PLAYORDER=
